<?xml version="1.0" encoding="utf-8"?>
<!-- Generator: Adobe Illustrator 23.0.6, SVG Export Plug-In . SVG Version: 6.00 Build 0)  -->
<svg version="1.1" id="Layer_3_xA0_Image_1_" xmlns="http://www.w3.org/2000/svg" xmlns:xlink="http://www.w3.org/1999/xlink"
	 x="0px" y="0px" viewBox="0 0 511.9 511.9" style="enable-background:new 0 0 511.9 511.9;" xml:space="preserve">
<style type="text/css">
	.st0{fill:none;}
	.st1{fill:#5F5F5F;}
</style>
<g>
	<path d="M512.5,100.2c0,104.3,0,208.6,0,313c-0.5,0.4-0.5,1-0.5,1.5c0,1.9,0.1,3.8,0.1,5.7c-0.1,2.2-0.1,4.5,0,6.7
		c0,2.1,0,4.2,0,6.2c0,3.4,0,6.7,0,10.1c-0.1,2.6-0.2,5.1,0,7.7c-0.1,4.2-0.1,8.5-0.2,12.7c-0.1,3,0,6.1-0.7,9.1
		c-2.9,12.2-9.5,22.1-19.6,29.5c-8,5.9-16.8,9.4-26.9,9.3c-7.1-0.1-14.2,0.3-21.3,0.5c-5.1-0.2-10.2,0-15.3,0c-4.3-0.2-8.6,0-13,0
		c-2.6,0-5.1,0-7.7,0c-6.1,0-12.2,0-18.2,0c-7.5,0-15,0-22.5,0c-0.7,0-1.5-0.2-2,0.5c-71.8,0-143.7,0-215.5,0
		c-0.6-0.7-1.3-0.5-2-0.5c-7.5,0-15,0-22.5,0c-6.1,0-12.2,0-18.2,0c-2.6,0-5.1,0-7.7,0c-4.3,0-8.6-0.2-12.9,0c-3.5-0.1-7-0.2-10.5,0
		c-1.9-0.1-3.8-0.2-5.8,0c-7.7-0.2-15.3-0.4-23-0.6c-2.2-0.1-4.3-0.2-6.4-0.7c-15.4-4.1-26.6-13.4-33.8-27.6
		c-2.7-5.4-4.4-11.1-4.3-17.3c0-2.2-0.1-4.5-0.2-6.7c0.2-0.5,0.2-1,0-1.4c-0.3-17.3-0.5-34.7-0.6-52c0-3.4,0.2-6.9-0.2-10.3
		c0.4-7.5,0.1-15.1-0.1-22.6c0-0.5,0.1-1,0.1-1.4c0-77,0-153.9,0-230.9c0.4-0.5,0.2-1.1,0.2-1.6c0-4.6,0.1-9.1,0.1-13.7
		c0-2.5,0.2-4.9-0.2-7.4c0-4,0.1-8,0.1-12c0-18.9,0.3-37.7,0.7-56.6c0.1-2.9,0-5.9,0.7-8.8c4.1-16,13.7-27.5,28.5-34.8
		c4.3-2.1,8.9-3.7,13.8-3.8c5.8-0.1,11.7-0.3,17.5-0.4C79.2,1.3,96.1,1.2,112.9,1c4.1,0,8.1-0.1,12.2-0.2c8.2,0.2,16.3,0.1,24.5,0
		c5.6,0.1,11.2,0.1,16.8,0c0.6,0,1.3,0.1,1.9,0.1c58.7,0,117.3,0,176,0c0.7,0,1.4-0.1,2.2-0.1c5.8,0.2,11.5,0.1,17.3,0
		c4.4,0,8.7,0.1,13.1,0.1c4,0,7.9,0.2,11.9-0.1c0.4,0,0.8,0.1,1.2,0.1c10,0.1,20,0.2,30,0.3c16,0.1,32,0.2,48,0.7
		c2,0.1,4,0.2,5.9,0.7C493,6.9,513,26.6,512,51c-0.2,4.9,0.1,9.8,0.1,14.6c0,1.4,0,2.9,0,4.3c0,3.4,0,6.7,0,10.1c0,2.1,0,4.2,0,6.2
		c-0.1,2.2-0.1,4.5,0,6.7c0,1.8-0.1,3.7-0.1,5.5C512,99.1,511.9,99.7,512.5,100.2z M240.4,429.5c1.4,0,2.9,0,4.3,0
		c1.5,0,2.9-0.4,4.1-1.1c4.6-2.4,8.6-5.5,11.8-9.6c1.7-2.2,3.2-4.6,4.9-6.8c2.9-4,5.7-8.1,8.4-12.3c3-4.7,5.3-9.8,6.9-15.2
		c2.5-8.6,4.5-17.3,6.4-26.1c2.2-10.1,3.9-20.2,4.6-30.5c0.5-7,0.6-14.1,0.9-21.1c0.5-12.2,1.2-24.4,1.7-36.7c0.1-3.2,0-6.4-0.7-9.5
		c-1.4-7-1.9-14.1-1.9-21.2c-0.1-7.5-0.6-15-1.9-22.4c-0.6-3.5-1-7-0.8-10.5c0.3-4.2-0.2-8.3-1-12.4c-0.7-3.3-1.3-6.6-1.7-9.9
		c-0.8-7-2-13.9-3.7-20.8c-1.7-7.1-3.4-14.1-4.3-21.4c-0.9-7.9-2.5-15.6-4.3-23.3c-0.7-3-1.5-6.1-1.6-9.2c-0.2-3.4,0-3.7,3.3-3.5
		c4.5,0.1,9.1,0.8,13.6,0.9c6.9,0.2,13.9,0.9,20.8,0.3c2.9-0.2,5.9-0.1,8.9,0c5.7,0.3,11.3,0.9,16.9,1.5c8,0.7,15.9,1.3,23.8,2.5
		c7.9,1.2,15.8,2.1,23.5,4.4c2.2,0.7,4.4,1.3,6.7,1.9c4.1,1,8.3,1.8,12.4,2.8c6.5,1.6,12.9,3.6,19.1,6.4c5.8,2.6,11.7,5.2,17.7,7.4
		c5.3,1.9,10.1,4.6,14.4,8.4c6.8,6,13.2,12.3,20.6,17.6c3.6,2.5,7,5.3,9.4,9.2c0.2,0.4,0.6,0.7,1,1c3.1,2.7,6.3,1.6,7.1-2.4
		c0.2-1.1,0.2-2.2,0-3.3c-0.3-1.7-1-3.4-1.9-4.9c-2.5-4.3-5.3-8.4-8.5-12.2c-0.3-0.4-0.6-0.8-1-1.1c-3.1-2.4-5.6-5.5-8.1-8.4
		c-4.4-5.2-9.8-9.2-15.7-12.4c-6.2-3.2-12-6.9-18.2-10.2c-4.4-2.3-8.7-4.8-12.9-7.3c-2.4-1.4-5.1-2.3-7.5-3.7
		c-4.8-2.8-9.9-5.2-15.2-7.1c-4.4-1.6-9.1-2.6-13.6-3.9c-3.1-0.9-6.2-2-9.4-2.8c-6.4-1.7-13-2.4-19.5-4c-8.5-2-17.3-2-25.9-3.2
		c-2.3-0.3-4.6-0.4-6.9-0.4c-2.8,0-5.6,0.2-8.4-0.3c-6.1-1-12.3-0.7-18.4-1.7c-4.3-0.7-8.7-0.9-13.1-1.4c-4.3-0.5-8.6-1.1-12.9-0.9
		c-2.2,0.1-4.5,0-6.7,0c-1,0-1.8-0.3-2.7-0.7c-2.2-1-3.8-2.5-5.4-4.3c-1.8-2-3.6-4.1-5.9-5.6c-2.6-1.8-4.6-1.9-7.3-0.1
		c-2.7,1.8-4.6,4.2-5.8,7.2c-0.7,1.7-1,3.5-1.5,5.3c-1,3.4-2.7,6.1-6.4,7.1c-4.3,1.2-8.6,2.5-12.8,3.9c-11.6,3.8-23,8.2-34.5,12.3
		c-8.5,3.1-16.4,7.5-24.1,12.3c-3.7,2.3-7.2,4.8-10.9,7c-3.2,1.9-6.1,4.3-9.5,6c-3.7,1.8-7.1,4.1-10.4,6.5
		c-10.6,7.7-20.3,16.3-29.8,25.3c-11.8,11.2-22.7,23.2-31.8,36.8c-6.1,9.1-11.4,18.7-14.3,29.4c-1.4,5.1-2.8,10.2-2.8,15.5
		c0,3.8,1.6,7,4.3,9.6c2.9,2.8,6.6,3.2,10.2,1.1c2.3-1.3,4.2-3.2,5.5-5.6c1.8-3.1,2-6.4,0.6-9.7c-0.3-0.8-0.7-1.6-1.2-2.3
		c-2-3-1.7-5.9,0.1-9c1.9-3.2,3.7-6.3,5.8-9.4c7.4-10.7,15.4-20.8,25.5-29.1c2.7-2.2,5.1-4.6,7.7-6.9c9.3-8.6,19.3-16.3,30.1-23
		c2.7-1.6,5.2-3.4,7.8-5.2c1.5-1.1,3-2.1,4.7-2.9c3.5-1.9,7.1-3.7,10.6-5.6c6-3.1,12-6,18.1-8.9c7.2-3.4,14.7-6.2,22.3-8.7
		c3-1,6.1-1.9,9-3.4c5-2.5,10.1-4.4,15.6-5.1c3.4-0.4,6.5-2.1,9.9-2.7c2.2-0.4,3-0.1,4.2,1.8c1.2,2,1.9,4.2,2.3,6.5
		c0.9,5.5,1.9,11,3.6,16.4c0.8,2.6,1.1,5.5,1.5,8.2c0.6,4,1.9,7.8,2.7,11.7c1.3,6.6,1.8,13.3,2.4,20c0.4,4.8,0.7,9.6,1.3,14.3
		c0.4,3.3,1.3,6.6,2,9.8c1.2,5.9,1.5,11.9,1.9,17.9c0.6,10,1,20,1.1,30c0.2,13.3,1.1,26.7,0,40c-0.6,7.4-1.2,14.8-2.3,22.2
		c-0.8,5.9-2.2,11.8-2.9,17.7c-0.5,4.8-1.1,9.7-2.1,14.5c-1.1,5.1-2.4,10.1-4.3,14.9c-0.9,2.3-2.5,3.9-4.8,4.7
		c-2.8,1-5.6,1.8-8.5,2.4c-1.6,0.3-3,0.9-4.5,1.6c-4.9,2.3-9.3,5.4-12.9,9.4c-6.9,7.8-11.1,16.4-9.6,27.3c1,7,4.2,12.3,9.9,16.2
		C225.8,427.9,232.8,429.6,240.4,429.5z"/>
	<path class="st0" d="M125.2,0.8c-4.1,0.1-8.1,0.1-12.2,0.2C96.1,1.2,79.2,1.3,62.3,1.5c-5.8,0.1-11.7,0.3-17.5,0.4
		C39.9,2,35.4,3.6,31.1,5.7C16.3,12.9,6.7,24.4,2.6,40.5c-0.7,2.9-0.7,5.9-0.7,8.8C1.5,68.1,1.2,87,1.2,105.9c0,4-0.1,8-0.1,12
		c-0.2,0-0.5,0.1-0.7,0.1c0-39.2,0-78.4,0-117.6c41.6,0,83.2,0,124.8,0C125.2,0.5,125.2,0.7,125.2,0.8z"/>
	<path class="st0" d="M512.1,65.6c-0.1-4.9-0.3-9.8-0.1-14.6c1-24.4-19-44.1-38.3-48.5c-2-0.4-3.9-0.6-5.9-0.7
		c-16-0.5-32-0.6-48-0.7c-10-0.1-20-0.2-30-0.3c-0.4,0-0.8-0.1-1.2-0.1c0-0.1,0-0.3,0-0.4c41.2,0,82.5,0,123.8,0
		c0,21.8,0,43.5,0,65.3C512.4,65.6,512.3,65.6,512.1,65.6z"/>
	<path class="st0" d="M443.4,512.1c7.1-0.2,14.2-0.6,21.3-0.5c10.1,0.1,18.9-3.4,26.9-9.3c10.1-7.4,16.7-17.3,19.6-29.5
		c0.7-3,0.6-6,0.7-9.1c0.1-4.2,0.1-8.5,0.2-12.7l0.2,0l0.2,0c0,20.5,0,41,0,61.4c-23,0-46.1,0-69.1,0
		C443.4,512.4,443.4,512.2,443.4,512.1z"/>
	<path class="st0" d="M1,140.5c0,77,0,153.9,0,230.9c0,0.5-0.1,1-0.1,1.4c-0.2,0-0.3,0-0.5,0c0-77.4,0-154.9,0-232.3
		C0.6,140.5,0.8,140.5,1,140.5z"/>
	<path class="st0" d="M346.5,0.8c-0.7,0-1.4,0.1-2.2,0.1c-58.7,0-117.3,0-176,0c-0.6,0-1.3,0-1.9-0.1c0-0.1,0-0.3,0-0.4
		c60,0,120,0,180,0C346.4,0.5,346.4,0.6,346.5,0.8z"/>
	<path class="st0" d="M1,140.5c-0.2,0-0.4,0-0.6,0c0-7.5,0-15,0-22.6c0.2,0,0.5-0.1,0.7-0.1c0.4,2.5,0.2,4.9,0.2,7.4
		c0,4.6,0,9.1-0.1,13.7C1.2,139.5,1.3,140,1,140.5z"/>
	<path class="st0" d="M0.4,372.8c0.2,0,0.3,0,0.5,0c0.2,7.5,0.5,15.1,0.1,22.6c-0.2,0-0.4,0-0.6-0.1C0.4,387.9,0.4,380.4,0.4,372.8z
		"/>
	<path class="st0" d="M388.7,0.4c0,0.1,0,0.3,0,0.4c-4,0.2-7.9,0.1-11.9,0.1c-4.4,0-8.7-0.1-13.1-0.1c0-0.1,0-0.3,0-0.4
		C372,0.4,380.4,0.4,388.7,0.4z"/>
	<path class="st0" d="M125.2,0.8c0-0.1,0-0.3,0-0.4c8.2,0,16.3,0,24.5,0c0,0.1,0,0.3,0,0.4C141.5,0.9,133.3,1,125.2,0.8z"/>
	<path class="st0" d="M363.7,0.4c0,0.1,0,0.3,0,0.4c-5.8,0.1-11.5,0.2-17.3,0c0-0.1,0-0.3,0-0.4C352.2,0.4,358,0.4,363.7,0.4z"/>
	<path class="st0" d="M149.6,0.8c0-0.1,0-0.3,0-0.4c5.6,0,11.2,0,16.8,0c0,0.1,0,0.3,0,0.4C160.8,0.9,155.2,0.9,149.6,0.8z"/>
	<path class="st0" d="M85.8,512.1c0,0.1,0,0.3,0,0.4c-3.5,0-7,0-10.6,0c0-0.1,0-0.3,0-0.4C78.7,511.9,82.3,512.1,85.8,512.1z"/>
	<path class="st0" d="M98.8,512.5c0-0.1,0-0.3,0-0.4c2.6,0,5.1,0,7.7,0c0,0.1,0,0.3,0,0.4C103.9,512.5,101.3,512.5,98.8,512.5z"/>
	<path class="st1" d="M415.1,512.1c0,0.1,0,0.3,0,0.4c-2.6,0-5.1,0-7.7,0c0-0.1,0-0.3,0-0.4C410,512.1,412.6,512.1,415.1,512.1z"/>
	<path d="M512.1,420.4c0-1.9-0.1-3.8-0.1-5.7c0-0.6-0.1-1.1,0.5-1.5c0,2.4,0,4.8,0,7.2C512.4,420.4,512.3,420.4,512.1,420.4z"/>
	<path d="M512.1,420.4c0.1,0,0.3,0,0.4-0.1c0,2.2,0,4.5,0,6.7c-0.1,0-0.3,0-0.4,0C512,424.9,512,422.7,512.1,420.4z"/>
	<path d="M512.1,427.1c0.1,0,0.3,0,0.4,0c0,2.1,0,4.2,0,6.2c-0.1,0-0.3,0-0.4,0C512.1,431.3,512.1,429.2,512.1,427.1z"/>
	<polygon points="1.7,458.5 1.8,457.8 2.3,457.8 2.3,459.4 1.8,459.4 	"/>
	<polygon points="512.5,100.2 511.6,65.6 511.4,100.2 	"/>
	<polygon points="512.5,433.3 512.1,451.1 510.9,433.3 	"/>
	<polygon points="149.2,512.5 123.2,512.1 148.9,511.6 	"/>
</g>
<polygon points="364.7,512.5 460.7,511.9 465.9,511.6 458,511.4 364.7,511.9 "/>
</svg>
